<?xml version="1.0" encoding="UTF-8"?>
<svg version="1.1" xmlns="http://www.w3.org/2000/svg" width="512" height="512">
<path d="M0 0 C0.86757935 0.00304138 1.73515869 0.00608276 2.62902832 0.00921631 C55.06611222 0.27983294 102.87921667 22.01609508 139.76904297 58.89355469 C162.77644488 82.35363934 178.48863859 112.3876724 187.0625 143.9375 C187.24901123 144.61079346 187.43552246 145.28408691 187.62768555 145.9777832 C191.93933767 162.74274012 192.75478731 179.25856353 192.71655273 196.47949219 C192.72226915 198.83231426 192.72923827 201.18513357 192.73735046 203.53794861 C192.75515026 209.87031399 192.75413926 216.20253982 192.74840808 222.5349226 C192.74490401 228.51469206 192.75290252 234.49444488 192.75976873 240.4742091 C192.77343337 253.03374619 192.76809718 265.59322064 192.75658352 278.15275624 C192.7466412 289.60986155 192.75961976 301.0668056 192.78351771 312.52388605 C192.80796894 324.33659634 192.81750284 336.14923169 192.81086498 347.96196675 C192.8073882 354.57470988 192.80984443 361.18734487 192.82711601 367.80007172 C192.84264502 374.01539126 192.83856347 380.23040347 192.81981087 386.44571114 C192.81614242 388.71635698 192.81918208 390.98702592 192.82969666 393.25765038 C192.89625451 408.82774883 191.98054396 422.78765271 184.5 436.8125 C183.97853394 437.81543091 183.97853394 437.81543091 183.4465332 438.83862305 C180.59296487 444.18881986 177.413494 448.95178201 173.3125 453.4375 C172.51199219 454.32953125 171.71148437 455.2215625 170.88671875 456.140625 C157.5214134 470.29895136 138.65799817 480.18641101 118.93655396 480.82518005 C116.63112779 480.84575012 114.32552047 480.85040531 112.02001953 480.84155273 C110.11527107 480.85184761 110.11527107 480.85184761 108.17204285 480.86235046 C104.72817048 480.88011003 101.28455521 480.87914811 97.84065104 480.87340808 C94.95513008 480.87029526 92.06965704 480.87643076 89.18414295 480.88244683 C82.37857986 480.89642979 75.57314253 480.89497915 68.76757812 480.88354492 C61.75999602 480.87203117 54.75279519 480.88620775 47.74526322 480.9129414 C41.70758288 480.93510754 35.6700222 480.94173488 29.63230407 480.93586498 C26.03503052 480.93250102 22.43800215 480.93487464 18.84076309 480.95211601 C14.83646696 480.97047748 10.8329146 480.95638905 6.82861328 480.93920898 C5.64409073 480.94887695 4.45956818 480.95854492 3.239151 480.96850586 C-3.04746335 480.91195109 -6.93406138 480.70621479 -11.6875 476.4375 C-15.31583663 472.61819828 -15.99750458 469.55470994 -16.1875 464.4375 C-15.99750458 459.32029006 -15.31583663 456.25680172 -11.6875 452.4375 C-6.23728456 447.69628973 -1.41318634 447.86919079 5.61938477 447.92333984 C6.75030045 447.91621475 7.88121613 447.90908966 9.04640198 447.90174866 C12.78241436 447.88246362 16.51786054 447.89075139 20.25390625 447.8984375 C22.8597852 447.88852795 25.46565714 447.87658573 28.07151794 447.86270142 C34.23593761 447.83247027 40.40022864 447.82075087 46.56471628 447.81712496 C58.22831854 447.81009004 69.89176295 447.77442663 81.55525017 447.7236824 C85.37107696 447.71116815 89.18673573 447.71184992 93.00257874 447.71395874 C95.36833827 447.70737112 97.73409668 447.70036344 100.09985352 447.69287109 C101.14707581 447.69699509 102.1942981 447.70111908 103.27325439 447.70536804 C120.2251351 447.61430721 133.8786538 444.53544773 146.25390625 432.55859375 C152.22924774 426.17026969 156.12654361 419.14292456 157.3125 410.4375 C156.43207031 410.78683594 155.55164063 411.13617188 154.64453125 411.49609375 C153.48308594 411.95113281 152.32164062 412.40617187 151.125 412.875 C149.97644531 413.32746094 148.82789063 413.77992188 147.64453125 414.24609375 C143.01497214 415.90144607 138.88525108 416.56189528 133.97827148 416.59863281 C132.93626083 416.60824036 131.89425018 416.6178479 130.82066345 416.62774658 C129.70293045 416.63199646 128.58519745 416.63624634 127.43359375 416.640625 C125.68901634 416.64917511 125.68901634 416.64917511 123.90919495 416.65789795 C121.44720363 416.6673373 118.98519975 416.6738777 116.52319336 416.67773438 C112.7880189 416.6874016 109.0534039 416.71842026 105.31835938 416.75 C102.91927408 416.75653453 100.52018487 416.76178323 98.12109375 416.765625 C97.01753036 416.7779718 95.91396698 416.7903186 94.77696228 416.80303955 C76.94950209 416.75275933 61.4363798 409.84637735 48.90234375 397.29296875 C37.38590039 384.59535171 32.00769251 369.62385958 32.02197266 352.7199707 C32.01525543 351.56925583 32.00853821 350.41854095 32.00161743 349.23295593 C31.98267896 345.44301997 31.97871509 341.65326154 31.9765625 337.86328125 C31.97175828 335.88537101 31.96695014 333.90746073 31.96164167 331.92955178 C31.94539784 325.71254299 31.94046889 319.49559204 31.94189453 313.27856445 C31.94309383 306.89718423 31.9220253 300.51614336 31.8904072 294.13484889 C31.86411691 288.6296308 31.85353259 283.12452263 31.85480535 277.61924237 C31.85531143 274.34301626 31.84794139 271.06715664 31.82844925 267.79097939 C31.80869683 264.12770652 31.81466476 260.46529073 31.82666016 256.80200195 C31.81542114 255.73922028 31.80418213 254.6764386 31.79260254 253.58145142 C31.93320138 236.55320962 39.56424619 221.06591603 51.421875 209.09765625 C66.29013591 195.41483776 82.93200034 192.11190652 102.37890625 192.2421875 C104.02513964 192.2459237 105.67137527 192.2487678 107.31761169 192.25076294 C111.62316162 192.25835167 115.92857382 192.27795854 120.23406982 192.3001709 C124.63844948 192.32073261 129.04285167 192.32978661 133.44726562 192.33984375 C142.06907319 192.36120952 150.6907694 192.39528706 159.3125 192.4375 C158.19478784 173.32834535 158.19478784 173.32834535 154.6875 154.5625 C154.42952637 153.53914551 154.17155273 152.51579102 153.90576172 151.46142578 C151.32393582 141.68704418 147.71748999 132.52279184 143.3125 123.4375 C142.99023438 122.76541504 142.66796875 122.09333008 142.3359375 121.40087891 C123.69207103 83.08053345 89.73814313 55.11050222 49.75 41.25 C9.80551164 28.08220017 -33.1709998 32.1077264 -70.6875 50.4375 C-72.43353516 51.28828125 -72.43353516 51.28828125 -74.21484375 52.15625 C-87.68183605 59.07746786 -99.40835837 68.42199665 -110.6875 78.4375 C-111.34105469 79.01757812 -111.99460937 79.59765625 -112.66796875 80.1953125 C-139.77301652 105.81956194 -155.00920375 143.88747535 -157.765625 180.43359375 C-157.90025146 182.16845032 -157.90025146 182.16845032 -158.03759766 183.93835449 C-158.25702797 186.77119987 -158.47358734 189.60423354 -158.6875 192.4375 C-157.7870697 192.43083817 -156.8866394 192.42417633 -155.95892334 192.41731262 C-147.42732654 192.35692568 -138.89580267 192.31138634 -130.36404037 192.28206348 C-125.97892812 192.26648097 -121.59399409 192.24538016 -117.20898438 192.21118164 C-112.96847051 192.17832117 -108.72812689 192.1605914 -104.48749542 192.15286827 C-102.87855606 192.14737223 -101.26962484 192.1366414 -99.66075897 192.12030983 C-80.26394908 191.93144169 -63.99585663 196.63279465 -49.69897461 210.15820312 C-38.39671462 221.47793183 -31.51888908 236.90465969 -31.40533447 252.85145569 C-31.40781189 253.91657883 -31.41028931 254.98170197 -31.4128418 256.07910156 C-31.40773087 257.22166916 -31.40261993 258.36423676 -31.39735413 259.54142761 C-31.38349951 263.30371396 -31.38441212 267.06581623 -31.38671875 270.828125 C-31.382829 273.45595365 -31.37849376 276.08378167 -31.37373352 278.71160889 C-31.36553696 284.21579608 -31.36641685 289.71993192 -31.37182617 295.22412109 C-31.37785676 301.55888732 -31.3655722 307.89343093 -31.3442561 314.22815919 C-31.32441653 320.35240486 -31.32147833 326.47654757 -31.32499123 332.60082245 C-31.32447989 335.19220247 -31.31927761 337.7835862 -31.30917931 340.37494659 C-31.29675525 344.00957556 -31.30364322 347.64369861 -31.31518555 351.27832031 C-31.30754181 352.33534653 -31.29989807 353.39237274 -31.29202271 354.48143005 C-31.41467017 372.07548565 -38.45970546 387.49442356 -50.83203125 399.84765625 C-64.12880134 411.90751749 -79.35848718 416.75290127 -96.95703125 416.73828125 C-98.11442307 416.74256638 -99.27181488 416.7468515 -100.46427917 416.75126648 C-102.90236764 416.75698499 -105.34047317 416.75752843 -107.77856445 416.75317383 C-111.47832835 416.75001848 -115.17728809 416.77348964 -118.87695312 416.79882812 C-121.2578115 416.80110205 -123.63867201 416.80180418 -126.01953125 416.80078125 C-127.11054642 416.809991 -128.20156158 416.81920074 -129.32563782 416.82868958 C-147.10791187 416.72331882 -162.59465187 409.81529771 -175.09765625 397.29296875 C-185.24617994 386.10357084 -192.02147992 371.54864425 -191.95492554 356.34790039 C-191.95945665 355.57395652 -191.96398776 354.80001265 -191.96865618 354.00261593 C-191.98123402 351.43006725 -191.97968404 348.85773211 -191.97802734 346.28515625 C-191.98401735 344.43131236 -191.99082398 342.57747097 -191.99838257 340.72363281 C-192.01601698 335.69784858 -192.02073731 330.67213252 -192.02201414 325.64632034 C-192.02343951 322.4955602 -192.02771675 319.34481716 -192.03300858 316.19406128 C-192.05151127 305.16972768 -192.05968024 294.14544236 -192.05810547 283.12109375 C-192.05690899 272.90118962 -192.07791339 262.68149837 -192.1095928 252.46164799 C-192.13591952 243.64928493 -192.14646572 234.83699057 -192.14519465 226.02458858 C-192.14468914 220.77902177 -192.15013949 215.53364355 -192.17155075 210.28811646 C-192.39923723 150.28946526 -177.7393251 98.06278996 -134.6875 54.4375 C-110.93662203 30.67865728 -80.45673168 14.45686393 -48.1875 5.6875 C-47.51420654 5.50098877 -46.84091309 5.31447754 -46.1472168 5.12231445 C-30.92781647 1.20815231 -15.66514715 -0.11753584 0 0 Z M-159.6875 224.4375 C-159.73432957 240.93664005 -159.76954235 257.43575837 -159.79112434 273.93494892 C-159.80141392 281.59671063 -159.81542966 289.25843091 -159.83837891 296.92016602 C-159.85838406 303.60221374 -159.87123327 310.28423145 -159.87567699 316.9663083 C-159.87827236 320.50070711 -159.88432366 324.03502009 -159.89896011 327.56939125 C-159.91520989 331.52585012 -159.91547514 335.48222688 -159.91455078 339.4387207 C-159.92174133 340.5960672 -159.92893188 341.7534137 -159.93634033 342.9458313 C-159.90781763 354.27608385 -158.94608892 364.3526563 -151.6875 373.4375 C-140.78886764 384.13467889 -128.7089936 384.62446832 -114.09179688 384.62280273 C-111.95682559 384.62498029 -109.82237962 384.64315346 -107.6875 384.66210938 C-95.5435574 384.71394995 -84.52289024 384.29575898 -74.6875 376.4375 C-65.14307745 366.71333314 -63.5352523 356.18467926 -63.54223633 343.00488281 C-63.53887772 342.08518707 -63.5355191 341.16549133 -63.53205872 340.21792603 C-63.52259793 337.19214509 -63.52060797 334.16641979 -63.51953125 331.140625 C-63.51631498 329.02463763 -63.51295064 326.90865048 -63.50944519 324.79266357 C-63.50346588 320.36111943 -63.50160403 315.92959476 -63.50219727 311.49804688 C-63.50229875 305.8415784 -63.48865536 300.18523583 -63.47142506 294.52879715 C-63.46026244 290.15854325 -63.45827938 285.78831937 -63.45880699 281.41805267 C-63.45763296 279.33382484 -63.45324385 277.24959607 -63.44547462 275.16538239 C-62.8976069 254.0458905 -62.8976069 254.0458905 -71.6875 235.4375 C-80.56949608 226.7196813 -90.10198323 224.2997069 -102.35717773 224.32397461 C-103.63797714 224.32405014 -104.91877655 224.32412567 -106.23838806 224.32420349 C-107.61595703 224.32930855 -108.99352559 224.33452452 -110.37109375 224.33984375 C-111.7959844 224.3417114 -113.22087569 224.34313366 -114.64576721 224.34413147 C-118.3759034 224.34792934 -122.10599996 224.35773598 -125.83612061 224.36883545 C-129.65050725 224.37910859 -133.46490036 224.38364168 -137.27929688 224.38867188 C-144.74871588 224.39936098 -152.21810236 224.4164042 -159.6875 224.4375 Z M73.23828125 234.55078125 C65.38546085 244.0828211 64.16084964 253.81758579 64.16723633 265.87011719 C64.16387772 266.78981293 64.1605191 267.70950867 64.15705872 268.65707397 C64.14759793 271.68285491 64.14560797 274.70858021 64.14453125 277.734375 C64.14131498 279.85036237 64.13795064 281.96634952 64.13444519 284.08233643 C64.12846588 288.51388057 64.12660403 292.94540524 64.12719727 297.37695312 C64.12729875 303.0334216 64.11365536 308.68976417 64.09642506 314.34620285 C64.08526244 318.71645675 64.08327938 323.08668063 64.08380699 327.45694733 C64.08263296 329.54117516 64.07824385 331.62540393 64.07047462 333.70961761 C63.5226069 354.8291095 63.5226069 354.8291095 72.3125 373.4375 C83.21113236 384.13467889 95.2910064 384.62446832 109.90820312 384.62280273 C112.04317441 384.62498029 114.17762038 384.64315346 116.3125 384.66210938 C128.4564426 384.71394995 139.47710976 384.29575898 149.3125 376.4375 C159.81890156 365.73323777 160.46988282 354.18628972 160.42602539 339.89282227 C160.42617142 338.64334305 160.42631744 337.39386383 160.4264679 336.10652161 C160.42589257 332.69792988 160.42089373 329.28939949 160.41389394 325.88081861 C160.40762245 322.31206269 160.40705361 318.74330587 160.40586853 315.17454529 C160.40276638 308.42448723 160.39456808 301.67444545 160.38451904 294.92439455 C160.37332319 287.23635173 160.36783872 279.54830812 160.36282361 271.86025918 C160.35238449 256.05266337 160.33480673 240.24508379 160.3125 224.4375 C152.15792882 224.39091181 144.00341437 224.35549748 135.84874249 224.33387566 C132.06114141 224.32349197 128.27363221 224.30943332 124.48608398 224.28662109 C120.82264633 224.2646975 117.15929637 224.25289079 113.49579811 224.24774551 C112.10654129 224.24408443 110.7172886 224.23693663 109.32806969 224.22603989 C95.86302359 224.12473951 83.191754 224.4098608 73.23828125 234.55078125 Z " fill="#830564" transform="translate(255.6875,15.5625)"/>
<path d="M0 0 C4.97347362 2.30911275 7.33186346 5.27238635 10 10 C10.50793457 13.56640625 10.50793457 13.56640625 10.51757812 17.5625 C10.5245874 18.29500977 10.53159668 19.02751953 10.53881836 19.78222656 C10.55633397 22.18854382 10.54479954 24.59367209 10.53125 27 C10.53394679 28.68099186 10.53783077 30.36198221 10.54284668 32.04296875 C10.54873298 35.56004743 10.54020709 39.0767188 10.52148438 42.59375 C10.49869501 47.09302189 10.5118228 51.59133927 10.53577423 56.09057617 C10.55025591 59.55996847 10.54561544 63.02913594 10.53526306 66.49853516 C10.53260231 68.15706496 10.53584257 69.81561544 10.54518127 71.47412109 C10.55538646 73.79579421 10.53979279 76.11594011 10.51757812 78.4375 C10.51280457 80.41556641 10.51280457 80.41556641 10.50793457 82.43359375 C9.75392424 87.72779367 7.30798979 90.7574097 3.5 94.375 C-1.66500009 96.77303575 -6.4002288 96.75381535 -12 96 C-16.97347362 93.69088725 -19.33186346 90.72761365 -22 86 C-22.50793457 82.43359375 -22.50793457 82.43359375 -22.51757812 78.4375 C-22.5245874 77.70499023 -22.53159668 76.97248047 -22.53881836 76.21777344 C-22.55633397 73.81145618 -22.54479954 71.40632791 -22.53125 69 C-22.53394679 67.31900814 -22.53783077 65.63801779 -22.54284668 63.95703125 C-22.54873298 60.43995257 -22.54020709 56.9232812 -22.52148438 53.40625 C-22.49869501 48.90697811 -22.5118228 44.40866073 -22.53577423 39.90942383 C-22.55025591 36.44003153 -22.54561544 32.97086406 -22.53526306 29.50146484 C-22.53260231 27.84293504 -22.53584257 26.18438456 -22.54518127 24.52587891 C-22.55538646 22.20420579 -22.53979279 19.88405989 -22.51757812 17.5625 C-22.51439575 16.24378906 -22.51121338 14.92507813 -22.50793457 13.56640625 C-21.75392424 8.27220633 -19.30798979 5.2425903 -15.5 1.625 C-10.33499991 -0.77303575 -5.5997712 -0.75381535 0 0 Z " fill="#6E0461" transform="translate(390,272)"/>
<path d="M0 0 C4.97347362 2.30911275 7.33186346 5.27238635 10 10 C10.50793457 13.56640625 10.50793457 13.56640625 10.51757812 17.5625 C10.5245874 18.29500977 10.53159668 19.02751953 10.53881836 19.78222656 C10.55633397 22.18854382 10.54479954 24.59367209 10.53125 27 C10.53394679 28.68099186 10.53783077 30.36198221 10.54284668 32.04296875 C10.54873298 35.56004743 10.54020709 39.0767188 10.52148438 42.59375 C10.49869501 47.09302189 10.5118228 51.59133927 10.53577423 56.09057617 C10.55025591 59.55996847 10.54561544 63.02913594 10.53526306 66.49853516 C10.53260231 68.15706496 10.53584257 69.81561544 10.54518127 71.47412109 C10.55538646 73.79579421 10.53979279 76.11594011 10.51757812 78.4375 C10.51280457 80.41556641 10.51280457 80.41556641 10.50793457 82.43359375 C9.75392424 87.72779367 7.30798979 90.7574097 3.5 94.375 C-1.66500009 96.77303575 -6.4002288 96.75381535 -12 96 C-16.97347362 93.69088725 -19.33186346 90.72761365 -22 86 C-22.50793457 82.43359375 -22.50793457 82.43359375 -22.51757812 78.4375 C-22.5245874 77.70499023 -22.53159668 76.97248047 -22.53881836 76.21777344 C-22.55633397 73.81145618 -22.54479954 71.40632791 -22.53125 69 C-22.53394679 67.31900814 -22.53783077 65.63801779 -22.54284668 63.95703125 C-22.54873298 60.43995257 -22.54020709 56.9232812 -22.52148438 53.40625 C-22.49869501 48.90697811 -22.5118228 44.40866073 -22.53577423 39.90942383 C-22.55025591 36.44003153 -22.54561544 32.97086406 -22.53526306 29.50146484 C-22.53260231 27.84293504 -22.53584257 26.18438456 -22.54518127 24.52587891 C-22.55538646 22.20420579 -22.53979279 19.88405989 -22.51757812 17.5625 C-22.51439575 16.24378906 -22.51121338 14.92507813 -22.50793457 13.56640625 C-21.75392424 8.27220633 -19.30798979 5.2425903 -15.5 1.625 C-10.33499991 -0.77303575 -5.5997712 -0.75381535 0 0 Z " fill="#9D0669" transform="translate(134,272)"/>
</svg>
