<?xml version="1.0" encoding="UTF-8"?>
<svg version="1.1" xmlns="http://www.w3.org/2000/svg" width="512" height="512">
<path d="M0 0 C2.62648146 -0.00457075 5.25296173 -0.00987895 7.87944031 -0.0158844 C13.34308898 -0.02582789 18.80661855 -0.022695 24.27026367 -0.01245117 C30.57193687 -0.00089678 36.87318809 -0.01519776 43.17480594 -0.04184765 C49.27829707 -0.06668284 55.3815934 -0.0691851 61.4851284 -0.06273079 C64.06751398 -0.06257757 66.64990775 -0.068622 69.23226357 -0.08102226 C72.82875002 -0.09588286 76.4242952 -0.08529566 80.02075195 -0.06811523 C81.08206833 -0.0777832 82.1433847 -0.08745117 83.23686218 -0.09741211 C89.23558234 -0.03734309 92.77258867 0.3979804 97.32421875 4.43359375 C99.22345501 7.48888686 99.32421875 9.31886157 99.32421875 12.93359375 C98.29723542 16.5280354 97.24999678 18.11527203 94.32134628 20.40269089 C90.16279812 22.54930353 85.54892483 22.10266496 80.97314453 22.04541016 C79.83729416 22.05107498 78.70144379 22.05673981 77.53117371 22.06257629 C73.77695688 22.07607549 70.02370603 22.05512265 66.26953125 22.03515625 C63.64842063 22.04065897 61.02731432 22.04878586 58.40621948 22.05941772 C51.49771743 22.08388978 44.58948952 22.07813199 37.68096924 22.06561279 C26.66000416 22.04587114 15.63920319 22.05747872 4.61828232 22.09147263 C0.78753951 22.09752897 -3.04279398 22.08436954 -6.87350464 22.06948853 C-33.61104914 22.05629015 -57.12104886 26.45563072 -76.98828125 45.74609375 C-77.87515625 46.63296875 -78.76203125 47.51984375 -79.67578125 48.43359375 C-80.35640625 49.11421875 -81.03703125 49.79484375 -81.73828125 50.49609375 C-96.97897576 66.82540929 -101.36095136 87.86306211 -100.98046875 109.40625 C-100.30199082 127.37470073 -92.81909908 144.23531115 -80.67578125 157.43359375 C-79.92683594 158.2740625 -79.17789063 159.11453125 -78.40625 159.98046875 C-63.20403399 176.18961668 -41.58354987 184.86722171 -19.57897949 185.62113953 C-18.1731921 185.65381388 -16.76729104 185.68185053 -15.36132812 185.70581055 C-14.5844313 185.7220195 -13.80753448 185.73822845 -13.00709534 185.75492859 C-5.91199786 185.89414355 1.18419431 185.97306869 8.28035736 186.03384686 C13.03215703 186.07491112 17.78191032 186.13559676 22.53271484 186.24291992 C27.15339442 186.34689196 31.77224709 186.40127657 36.39402771 186.4213047 C38.14522008 186.43717605 39.8963499 186.47026836 41.64686584 186.52145958 C51.50317296 187.01810574 51.50317296 187.01810574 60.28613281 183.24624634 C62.68515021 180.64591133 62.68515021 180.64591133 64.52819824 177.88459778 C67.99195046 173.15766365 73.62755144 170.52329716 79.32421875 169.43359375 C89.11888848 168.63151056 97.53633299 170.16942477 105.32421875 176.43359375 C112.32421875 183.59009782 112.32421875 183.59009782 112.32421875 186.43359375 C135.42118713 186.34954224 158.51808602 186.25435348 181.61495399 186.14606667 C192.34029351 186.0960392 203.06562575 186.04959548 213.79101562 186.01171875 C223.14407815 185.97867916 232.4970826 185.93878264 241.85008085 185.89080369 C246.79802702 185.86565719 251.74593525 185.84384154 256.69392776 185.83024979 C261.36097066 185.81732111 266.02788264 185.79515283 270.69485283 185.76621056 C272.39826851 185.75721851 274.10170522 185.7514644 275.80514336 185.74938011 C301.56854207 185.71224508 324.78233637 180.78019462 343.63671875 162.22265625 C361.07004999 144.13050726 368.06533242 123.17168848 367.62890625 98.4609375 C366.95039159 80.49151401 359.46693993 63.6331814 347.32421875 50.43359375 C346.586875 49.60472656 345.84953125 48.77585938 345.08984375 47.921875 C330.2288222 32.06526214 310.02798351 23.48146729 288.41666031 22.27069855 C281.6260522 22.05151737 274.83574956 22.05711869 268.04227638 22.08403397 C264.20393422 22.09793628 260.36609941 22.09124177 256.52775574 22.07919312 C246.32010875 22.05038958 236.11255234 22.05060892 225.90488499 22.06944597 C218.51533248 22.08297121 211.12635033 22.07386774 203.73682213 22.04334641 C201.19352141 22.03790857 198.6501818 22.04196266 196.10691261 22.05574417 C192.562784 22.07475352 189.01993601 22.06342045 185.47583008 22.04541016 C184.43007309 22.05874893 183.3843161 22.07208771 182.30686951 22.08583069 C177.7561045 22.03435038 174.3664268 21.98610291 170.69364929 19.11019897 C167.72036018 15.75145052 167.24589714 13.89792568 167.32421875 9.43359375 C168.53306972 5.73593197 169.52399255 3.97704315 172.75032043 1.78598022 C177.7060601 -0.08930404 182.18739934 0.01479264 187.4440918 0.04541016 C188.55561615 0.0401532 189.6671405 0.03489624 190.81234741 0.02947998 C194.48702063 0.01628046 198.16125984 0.02502614 201.8359375 0.03515625 C204.40501488 0.03313365 206.97409169 0.03022067 209.54316711 0.02645874 C214.93582129 0.02203387 220.32831404 0.02817619 225.72094727 0.04248047 C231.9055858 0.05869898 238.0899259 0.05359711 244.27455682 0.03700125 C250.26637443 0.0215805 256.25804958 0.02342786 262.24988747 0.03214645 C264.77686417 0.03412914 267.30384862 0.0317582 269.83081627 0.02470779 C287.42933056 -0.01357609 305.53755674 -0.04407256 322.13671875 6.62109375 C322.9153125 6.92225098 323.69390625 7.2234082 324.49609375 7.53369141 C350.96555322 18.11169584 370.94483591 38.39901244 382.45166016 64.29394531 C392.4822279 88.89044663 392.88530378 118.22998266 382.84423828 142.85180664 C371.47146982 169.30450622 351.49693859 188.77784199 325.32421875 200.43359375 C308.89978188 206.89185366 291.77814841 207.74153746 274.3515625 207.66064453 C272.61523444 207.66007873 270.87890591 207.66040027 269.14257812 207.66152954 C264.48247402 207.66209746 259.82247534 207.65043521 255.16239548 207.63638163 C250.27241314 207.62377958 245.38242771 207.62269637 240.49243164 207.62033081 C231.2564572 207.61414364 222.02053078 207.59777067 212.78457737 207.57763183 C202.25962494 207.55518625 191.73467008 207.54425774 181.20969963 207.53424096 C159.5811786 207.51340164 137.95270341 207.47787162 116.32421875 207.43359375 C116.32421875 214.69359375 116.32421875 221.95359375 116.32421875 229.43359375 C117.31421875 229.10359375 118.30421875 228.77359375 119.32421875 228.43359375 C129.41810096 227.49641443 136.4751926 229.96885783 145.32421875 234.43359375 C146.16984375 233.81484375 147.01546875 233.19609375 147.88671875 232.55859375 C154.77275255 228.05311456 162.30723355 227.62472807 170.32421875 228.43359375 C177.57971664 230.17700116 183.36268606 233.87667714 188.32421875 239.43359375 C189.82421875 242.37109375 189.82421875 242.37109375 190.32421875 244.43359375 C191.02289063 244.12035156 191.7215625 243.80710937 192.44140625 243.484375 C201.14498365 240.31193283 210.88906297 240.69033313 219.32421875 244.43359375 C228.28476948 249.84900447 233.08929464 256.16643897 235.70663452 266.19500732 C236.85373534 272.21035707 236.73231377 278.24599263 236.6875 284.34765625 C236.68697934 285.77094522 236.68750498 287.19423492 236.68901062 288.61752319 C236.68892148 291.58773674 236.67862061 294.55767562 236.66040039 297.52783203 C236.63783734 301.28301156 236.63734253 305.03779087 236.64364529 308.79301929 C236.68988166 344.98957779 236.68988166 344.98957779 232.13671875 362.49609375 C231.9238623 363.3269751 231.71100586 364.15785645 231.49169922 365.01391602 C229.28152111 373.22550527 226.10422608 380.83269204 222.32421875 388.43359375 C221.75574219 389.58601563 221.18726563 390.7384375 220.6015625 391.92578125 C216.54770697 399.77493204 211.91339977 407.84441273 205.62109375 414.13671875 C203.49947317 417.89428772 203.86772944 421.8788017 203.82421875 426.12109375 C203.73927942 434.22066571 202.80716729 441.13618282 198.69921875 448.24609375 C192.03570593 454.38353977 184.47130884 455.01613295 175.76513672 454.93530273 C174.08291016 454.94340721 174.08291016 454.94340721 172.36669922 454.95167542 C168.68299459 454.96411855 165.00007813 454.94770214 161.31640625 454.9296875 C158.7452897 454.92984257 156.17417292 454.93133283 153.60305786 454.93409729 C148.22500344 454.93547924 142.84723653 454.92339351 137.46923828 454.90014648 C131.26554302 454.8735147 125.0622218 454.87180125 118.85848892 454.88353485 C112.86927809 454.89433871 106.88023755 454.888004 100.89102554 454.87397957 C98.35134396 454.8694694 95.8116514 454.86912446 93.27196884 454.87304497 C89.72258816 454.87596009 86.1738155 454.85943558 82.62451172 454.83764648 C81.05644272 454.84439896 81.05644272 454.84439896 79.45669556 454.85128784 C71.27295457 454.76795234 65.45451214 453.22331528 59.32421875 447.43359375 C55.67090626 442.21457591 55.21134751 438.26227798 55.359375 431.97265625 C55.75280181 412.32893267 55.75280181 412.32893267 45.84375 396.09326172 C42.92224916 392.9023294 40.55464388 389.28246699 38.07421875 385.74609375 C36.96787999 384.20874794 35.85846401 382.67361228 34.74609375 381.140625 C34.18470703 380.3667041 33.62332031 379.5927832 33.04492188 378.79541016 C30.15509394 374.82886711 27.23967287 370.8813178 24.32421875 366.93359375 C22.57784501 364.56473567 20.83210527 362.195413 19.08691406 359.82568359 C17.89479731 358.20790521 16.70140234 356.59106806 15.50683594 354.97509766 C13.73146277 352.569892 11.96446829 350.15873549 10.19921875 347.74609375 C9.66683594 347.02808594 9.13445312 346.31007813 8.5859375 345.5703125 C0.6034149 334.61229947 -1.94661944 324.95314894 -0.67578125 311.43359375 C1.5544449 301.93089102 6.9725854 296.03611183 14.9453125 290.73046875 C20.22969924 287.84965365 25.17565384 287.04440918 31.13671875 287.05859375 C31.84159424 287.06020508 32.54646973 287.06181641 33.27270508 287.06347656 C42.01324576 287.26863941 46.62838194 290.0769243 53.32421875 295.43359375 C53.81921875 251.87359375 53.81921875 251.87359375 54.32421875 207.43359375 C29.04585461 207.51247824 29.04585461 207.51247824 3.76757812 207.61376953 C-1.17480469 207.62280273 -1.17480469 207.62280273 -3.50476074 207.6244812 C-5.09656907 207.62750785 -6.68837347 207.63444653 -8.28015137 207.64474487 C-42.11963759 207.85230553 -69.99579228 199.3707068 -94.67578125 175.43359375 C-113.62518746 156.5551591 -122.8515532 131.12950016 -122.98828125 104.68359375 C-123.00379968 76.85560446 -114.37127205 52.624329 -94.67578125 32.43359375 C-93.85078125 31.56734375 -93.02578125 30.70109375 -92.17578125 29.80859375 C-91.35078125 29.02484375 -90.52578125 28.24109375 -89.67578125 27.43359375 C-89.09054688 26.85351562 -88.5053125 26.2734375 -87.90234375 25.67578125 C-78.7666971 17.01559576 -68.11030123 11.05179849 -56.42578125 6.55859375 C-55.73758301 6.2845874 -55.04938477 6.01058105 -54.34033203 5.72827148 C-36.97893103 -0.53777503 -18.16941532 -0.02791897 0 0 Z M76.32421875 195.43359375 C75.32124553 198.44251341 75.19717996 200.43795872 75.19291687 203.5821228 C75.18890869 204.64761856 75.18490051 205.71311432 75.18077087 206.81089783 C75.18156395 208.56425194 75.18156395 208.56425194 75.18237305 210.35302734 C75.17889862 211.58413742 75.17542419 212.8152475 75.17184448 214.08366394 C75.16448322 216.76173815 75.15881208 219.43976266 75.15555382 222.11783981 C75.14964083 226.35371726 75.13309791 230.58951081 75.11421204 234.8253479 C75.10787478 236.27584643 75.10154915 237.72634501 75.09523487 239.17684364 C75.09206906 239.90322509 75.08890325 240.62960654 75.0856415 241.37799954 C75.04357208 251.23896404 75.01058654 261.09988922 74.99829102 270.9609375 C74.98991102 277.613388 74.96742378 284.26563052 74.92893535 290.91797698 C74.90917407 294.43765429 74.89677024 297.95702071 74.90176964 301.47675705 C74.90727888 305.40316603 74.8820156 309.32904934 74.85424805 313.25537109 C74.86415016 315.00265251 74.86415016 315.00265251 74.87425232 316.78523254 C74.78296139 324.62832503 74.78296139 324.62832503 72.50202942 328.63223267 C69.42425603 331.17799171 67.29034766 331.43359375 63.32421875 331.43359375 C57.84974564 329.76744976 54.50251514 325.79180466 50.62890625 321.78125 C47.90627113 319.00785389 45.05493107 316.45122425 42.08984375 313.94140625 C40.61701139 312.68363348 39.21097397 311.34818009 37.82421875 309.99609375 C34.9629106 308.20777616 32.69651673 307.8090768 29.32421875 307.96875 C25.72876217 308.80441276 23.87501115 310.8205869 21.32421875 313.43359375 C19.47471336 317.13260453 19.48709276 320.49118283 20.32421875 324.43359375 C22.45768104 328.39809456 25.10341512 331.91867324 27.83496094 335.48193359 C29.44319413 337.58951002 31.01505373 339.72096016 32.58203125 341.859375 C34.95012648 345.09079283 37.32667294 348.31564993 39.7109375 351.53515625 C44.76147611 358.36736387 49.72142228 365.26437471 54.68457031 372.16015625 C56.39053066 374.52553783 58.10270977 376.88631182 59.81640625 379.24609375 C60.39318115 380.04136475 60.96995605 380.83663574 61.56420898 381.65600586 C62.65358218 383.15775217 63.74413686 384.65864255 64.83618164 386.15844727 C77.95225228 404.26145631 75.42960398 404.80592097 76.32421875 433.43359375 C111.30421875 433.43359375 146.28421875 433.43359375 182.32421875 433.43359375 C182.65421875 425.18359375 182.98421875 416.93359375 183.32421875 408.43359375 C186.6219432 403.38522545 188.88915348 400.01976829 192.91259766 395.95458984 C211.03101758 376.43232141 215.65422036 347.16354799 215.625 321.7421875 C215.628902 320.29826233 215.63323966 318.85433829 215.63798523 317.41041565 C215.64536197 314.41802196 215.64521514 311.42574652 215.63989258 308.43334961 C215.63404669 304.61044586 215.65119199 300.78801859 215.67423725 296.96519375 C215.68898465 293.99769802 215.68984601 291.0303177 215.68672752 288.06279182 C215.68723818 286.65266015 215.69242766 285.24252158 215.70253944 283.83242607 C215.71493299 281.86675634 215.70615507 279.90098798 215.6965332 277.93530273 C215.69716263 276.82138657 215.69779205 275.7074704 215.69844055 274.55979919 C215.26415759 270.93184982 214.21803047 268.5447372 212.32421875 265.43359375 C209.09154808 263.20664285 207.1926863 262.41586992 203.26171875 262.49609375 C199.88106916 263.57502447 197.89505997 265.00965774 195.32421875 267.43359375 C194.16309124 269.75584878 194.15593036 271.24116241 194.078125 273.828125 C194.02881836 275.13813477 194.02881836 275.13813477 193.97851562 276.47460938 C193.9177096 278.31043384 193.86037214 280.14637673 193.80664062 281.98242188 C193.4656536 290.73871124 193.4656536 290.73871124 191.32421875 294.43359375 C188.3021448 296.44830972 187.40695176 296.77078409 183.94921875 296.87109375 C183.19898438 296.91105469 182.44875 296.95101562 181.67578125 296.9921875 C178.04588526 296.12993646 176.64286999 294.30751839 174.32421875 291.43359375 C173.85212761 288.57768723 173.67024135 286.30909405 173.72265625 283.46484375 C173.71464996 282.70691528 173.70664368 281.94898682 173.69839478 281.16809082 C173.67539184 278.75604236 173.68476065 276.34568639 173.69921875 273.93359375 C173.70307374 271.52181875 173.69957038 269.11078855 173.67861938 266.69909668 C173.66658575 265.20215262 173.66910826 263.70499898 173.68832397 262.20812988 C173.66455436 257.75934766 173.02888095 254.98881525 170.32421875 251.43359375 C167.66922151 249.34752449 166.25671371 249.4347992 162.82421875 249.49609375 C158.5185156 250.64940709 157.64051072 251.67935619 155.32421875 255.43359375 C154.93726869 258.23098914 154.76578727 260.6457572 154.78515625 263.4375 C154.77336334 264.19780014 154.76157043 264.95810028 154.74942017 265.74143982 C154.7142515 268.15986791 154.70499984 270.57743118 154.69921875 272.99609375 C154.68285244 275.41806696 154.66077427 277.83965663 154.62759399 280.26145935 C154.60803227 281.76499046 154.59862174 283.26869717 154.60067749 284.77235413 C154.56316688 288.46085199 154.5137271 291.37860389 152.32421875 294.43359375 C149.3021448 296.44830972 148.40695176 296.77078409 144.94921875 296.87109375 C144.19898438 296.91105469 143.44875 296.95101562 142.67578125 296.9921875 C139.04588526 296.12993646 137.64286999 294.30751839 135.32421875 291.43359375 C134.85212761 288.57768723 134.67024135 286.30909405 134.72265625 283.46484375 C134.71464996 282.70691528 134.70664368 281.94898682 134.69839478 281.16809082 C134.67539184 278.75604236 134.68476065 276.34568639 134.69921875 273.93359375 C134.70307374 271.52181875 134.69957038 269.11078855 134.67861938 266.69909668 C134.66658575 265.20215262 134.66910826 263.70499898 134.68832397 262.20812988 C134.6645663 257.76158256 134.08280058 254.95436212 131.32421875 251.43359375 C127.81168729 249.09190611 126.45952519 248.93735698 122.32421875 249.43359375 C119.62431213 251.23353149 117.78233225 252.51736675 116.32421875 255.43359375 C116.19172177 258.01085577 116.11437006 260.56562427 116.078125 263.14453125 C116.04518466 264.71484928 116.01197305 266.28516165 115.97851562 267.85546875 C115.931117 270.33296786 115.88668941 272.81044426 115.84741211 275.28808594 C115.80764406 277.67797923 115.75610966 280.06739954 115.703125 282.45703125 C115.69471085 283.19569427 115.68629669 283.9343573 115.67762756 284.69540405 C115.58903693 288.38961997 115.51490714 291.37205272 113.32421875 294.43359375 C110.3021448 296.44830972 109.40695176 296.77078409 105.94921875 296.87109375 C105.19898438 296.91105469 104.44875 296.95101562 103.67578125 296.9921875 C100.00547054 296.12033629 98.64360446 294.37171319 96.32421875 291.43359375 C95.6075357 288.422117 95.66364987 285.49219709 95.71240234 282.40820312 C95.70673752 281.50842239 95.70107269 280.60864166 95.69523621 279.68159485 C95.68175282 276.71308508 95.70266599 273.74579988 95.72265625 270.77734375 C95.71715607 268.71137658 95.70903147 266.64541488 95.69839478 264.57946777 C95.67550367 259.1430008 95.67973184 253.70693583 95.69219971 248.27044678 C95.71050326 239.56893864 95.70057001 230.86766587 95.66633987 222.16621399 C95.6602323 219.12767721 95.67350043 216.08964464 95.68832397 213.05114746 C95.68537598 211.18709177 95.6817213 209.32303702 95.67724609 207.45898438 C95.68653641 206.6151973 95.69582672 205.77141022 95.70539856 204.90205383 C95.67377466 200.24590715 95.33088718 197.2219294 92.32421875 193.43359375 C89.82421314 191.52569473 87.96221621 190.56446502 84.88671875 189.93359375 C81.05970084 190.68032895 79.0675563 192.75260478 76.32421875 195.43359375 Z " fill="#000000" transform="translate(122.67578125,28.56640625)"/>
<path d="M0 0 C2.67878201 2.83764638 4.76176663 5.9892583 6.87109375 9.26513672 C8.50356012 11.77385342 10.21670373 14.22449621 11.92333984 16.68310547 C13.32395089 18.70402228 14.7142477 20.73165497 16.1015625 22.76171875 C19.12172077 27.18032813 22.15403476 31.59051971 25.1875 36 C26.11853583 37.35413487 27.04952983 38.7082985 27.98046875 40.0625 C28.64691406 41.031875 29.31335938 42.00125 30 43 C30.01981934 42.00669678 30.03963867 41.01339355 30.06005859 39.98999023 C30.13654883 36.27913506 30.22519658 32.56864997 30.31738281 28.8581543 C30.35549419 27.25699204 30.39037713 25.65574937 30.421875 24.05444336 C30.46791611 21.74303586 30.52584208 19.43217356 30.5859375 17.12109375 C30.59748871 16.41351425 30.60903992 15.70593475 30.62094116 14.97691345 C30.77376689 9.74540124 31.06141708 4.15398102 34.6875 0.125 C39.07893841 -2.01137544 42.57248024 -2.43923685 47.25 -1 C50.63867575 1.46449146 51.79155729 4.10524607 53 8 C53.3742218 11.41418457 53.3742218 11.41418457 53.37231445 15.01757812 C53.37596512 15.68035263 53.37961578 16.34312714 53.38337708 17.02598572 C53.39141572 19.1946762 53.3779294 21.36260354 53.36328125 23.53125 C53.36276183 25.05147298 53.36328268 26.57169663 53.36479187 28.09191895 C53.36470245 31.26922712 53.35433437 34.44627999 53.33618164 37.62353516 C53.31349555 41.68190458 53.31295363 45.73990156 53.31969929 49.79831696 C53.32305196 52.93486805 53.3163848 56.07133533 53.30657005 59.20787048 C53.30274014 60.70368511 53.30156061 62.19950908 53.3031559 63.69532776 C53.30352969 65.79120425 53.29081984 67.88661576 53.2746582 69.98242188 C53.26774712 71.76610168 53.26774712 71.76610168 53.26069641 73.58581543 C52.88746931 78.47374701 52.14561859 82.60377735 49 86.4375 C44.64108363 88.70776894 40.8129129 88.87943591 36 88 C33.375 86.1875 33.375 86.1875 31 83 C30.46632813 82.30261719 29.93265625 81.60523438 29.3828125 80.88671875 C24.24298573 74.03006188 19.47329141 66.89893524 14.65625 59.81396484 C11.4951577 55.16558246 8.28641485 50.56073897 5 46 C4.98541748 46.99854004 4.97083496 47.99708008 4.95581055 49.02587891 C4.89759932 52.74986606 4.82036923 56.47326292 4.73754883 60.19677734 C4.70440637 61.8047524 4.67634146 63.41284081 4.65356445 65.02099609 C4.61982033 67.34000705 4.56749806 69.65798931 4.51171875 71.9765625 C4.50213387 73.04567368 4.50213387 73.04567368 4.49235535 74.13638306 C4.33199835 79.64726284 3.02345639 83.75171513 -0.6875 87.875 C-4.09776895 89.53404976 -7.32879019 89.67742562 -11 89 C-13.8100346 87.20636089 -15.50940468 85.98119065 -17 83 C-17.11882098 80.52475135 -17.17829348 78.0767265 -17.19287109 75.6003418 C-17.20104858 74.83754913 -17.20922607 74.07475647 -17.21765137 73.28884888 C-17.24250831 70.75898018 -17.25902201 68.22916761 -17.2734375 65.69921875 C-17.27876118 64.83572123 -17.28408485 63.9722237 -17.28956985 63.08255959 C-17.31630265 58.51216138 -17.33567718 53.9417905 -17.35009766 49.37133789 C-17.36674673 44.64990314 -17.41152584 39.92916626 -17.4624691 35.20799541 C-17.49612032 31.57828466 -17.50767271 27.94874 -17.51332474 24.31888771 C-17.52004305 22.57853677 -17.53528028 20.83819698 -17.55921555 19.09799767 C-17.5908263 16.66070009 -17.59091087 14.22529043 -17.58349609 11.7878418 C-17.59990143 11.07025192 -17.61630676 10.35266205 -17.63320923 9.61332703 C-17.58459705 5.70552031 -17.10582878 4.12906484 -14.59341431 1.0650177 C-9.93651241 -2.64306119 -5.31771593 -2.86863942 0 0 Z " fill="#000000" transform="translate(250,87)"/>
<path d="M0 0 C3.28514514 3.5344642 3.50947615 6.13805139 3.36328125 10.80859375 C2.82592743 14.05005065 1.35364287 15.78480671 -1 18 C-4.22208469 19.61104234 -7.50517794 19.47093347 -11 19 C-12.953125 18.140625 -12.953125 18.140625 -14.875 17.0625 C-20.14689491 14.17379046 -25.49752885 13.31191388 -31.42578125 14.4765625 C-38.8654573 16.75222811 -44.12769988 20.08517836 -48 27 C-51.01494937 33.78363609 -50.86625556 40.25564399 -48.4375 47.1875 C-45.64872013 53.51135294 -41.57746278 56.54105881 -35.6875 59.875 C-29.45127303 61.77757772 -23.67147639 62.06607608 -17.625 59.375 C-12.95756687 56.72540665 -10.67979481 53.03938442 -9 48 C-9.88042969 48.05800781 -10.76085937 48.11601562 -11.66796875 48.17578125 C-20.99814701 48.53821881 -20.99814701 48.53821881 -23.94140625 46.95703125 C-26.22462735 44.63291664 -27.98772501 42.27168944 -28.01953125 38.9765625 C-27.45922208 32.61229611 -27.45922208 32.61229611 -25.125 29.5 C-19.83145215 25.76337799 -13.33409544 26.77685014 -7.125 26.75 C-5.34802734 26.7190625 -5.34802734 26.7190625 -3.53515625 26.6875 C-2.39175781 26.68234375 -1.24835938 26.6771875 -0.0703125 26.671875 C1.49565674 26.65785645 1.49565674 26.65785645 3.09326172 26.64355469 C7.2686936 27.1555764 9.89121077 28.85731765 12.7890625 31.84375 C16.47924508 38.41465576 13.96351644 48.17639459 12.0390625 55.046875 C7.55940632 67.77852939 0.86704503 75.00743527 -11.1328125 80.8359375 C-21.36676055 84.99086464 -34.14577911 84.19090847 -44.3203125 80.26171875 C-56.2756025 74.63262448 -65.10258731 65.72887979 -70.0390625 53.40625 C-74.16976121 40.2806653 -72.46337193 27.56436843 -66.71484375 15.24609375 C-60.58223019 4.05706344 -50.45973438 -3.12335563 -38.328125 -6.8125 C-25.17833498 -9.75282572 -11.32045478 -7.58277142 0 0 Z " fill="#000000" transform="translate(213,93)"/>
<path d="M0 0 C2.38312703 1.89428046 3.6500559 3.30011179 5 6 C5.10392272 7.69921575 5.14594839 9.40238629 5.15771484 11.10473633 C5.16797699 12.16956741 5.17823914 13.2343985 5.18881226 14.33149719 C5.19611359 15.48667343 5.20341492 16.64184967 5.2109375 17.83203125 C5.2390067 20.2636786 5.26767117 22.69531914 5.296875 25.12695312 C5.33815095 28.9717591 5.37502698 32.81643799 5.40136719 36.66137695 C5.4289535 40.36436443 5.47482877 44.0667681 5.5234375 47.76953125 C5.52669037 48.9186348 5.52994324 50.06773834 5.53329468 51.25166321 C5.55814438 52.86309456 5.55814438 52.86309456 5.58349609 54.50708008 C5.59562637 55.92033318 5.59562637 55.92033318 5.60800171 57.36213684 C6.07960278 60.53566875 7.12814029 62.41215909 9 65 C13.43341819 67.98997971 17.7375174 68.92270889 23 68 C26.31272955 66.73584685 29.1911337 65.23924737 31.18034363 62.19161987 C32.16427315 59.5607619 32.24479571 57.49256406 32.23950195 54.68408203 C32.24323318 53.6226297 32.24696442 52.56117737 32.25080872 51.46755981 C32.24667465 50.3258432 32.24254059 49.18412659 32.23828125 48.0078125 C32.25369928 45.58723397 32.27000279 43.16666094 32.28710938 40.74609375 C32.30357271 36.93200538 32.31248762 33.11832025 32.30541992 29.30419922 C32.3028014 25.62160624 32.33091146 21.94024153 32.36328125 18.2578125 C32.35307449 17.12014435 32.34286774 15.9824762 32.33235168 14.81033325 C32.44142825 5.9788383 32.44142825 5.9788383 35.41308594 2.29296875 C38.51473538 -0.45624714 40.00836396 -1.01924396 44.00390625 -1.23828125 C47.44405138 -0.82761813 49.45378542 0.7569062 52 3 C54.0145585 6.1746371 54.26072137 8.69510828 54.29052734 12.42016602 C54.30328705 13.50552139 54.31604675 14.59087677 54.32919312 15.7091217 C54.33141876 16.8789006 54.33364441 18.0486795 54.3359375 19.25390625 C54.3459227 21.07075172 54.3459227 21.07075172 54.35610962 22.92430115 C54.36623868 25.49061566 54.37092656 28.05695653 54.37060547 30.62329102 C54.37495638 34.52340055 54.41121421 38.42235797 54.44921875 42.32226562 C54.45509148 44.82030865 54.45905782 47.31835703 54.4609375 49.81640625 C54.47530853 50.97201553 54.48967957 52.12762482 54.50448608 53.31825256 C54.44734723 63.60170262 52.32257733 72.61943099 45.0546875 80.21484375 C35.94506816 88.129475 26.6363068 90.50042496 14.7265625 90.3125 C5.36698057 89.5276294 -2.31953775 84.92456799 -8.72265625 78.1875 C-15.77908169 69.5880233 -16.46148631 59.96458224 -16.43359375 49.203125 C-16.4388356 48.01072205 -16.44407745 46.81831909 -16.44947815 45.58978271 C-16.45586673 43.08541642 -16.4546027 40.58101998 -16.44604492 38.07666016 C-16.43749371 34.24718195 -16.46640963 30.41917657 -16.49804688 26.58984375 C-16.49965809 24.14843794 -16.49908288 21.70702951 -16.49609375 19.265625 C-16.50732773 18.1249054 -16.51856171 16.98418579 -16.53013611 15.80889893 C-16.47538876 9.57363746 -16.22514007 5.72294525 -12 1 C-8.4628316 -1.90553119 -4.17930477 -1.21002458 0 0 Z " fill="#000000" transform="translate(343,86)"/>
<path d="M0 0 C2.36872706 3.36206421 2.67711315 5.47403337 2.40625 9.5234375 C1.53120586 13.67989716 0.34769725 15.09004615 -3.0625 17.75 C-8.55935632 19.07154385 -12.87995265 18.15710414 -17.6875 15.3125 C-18.41710937 14.85875 -19.14671875 14.405 -19.8984375 13.9375 C-24.16912425 11.59401846 -28.24399368 11.32439214 -33 12.4375 C-35.25050105 13.55456805 -35.25050105 13.55456805 -35.69140625 15.83203125 C-35.81386719 16.46496094 -35.93632813 17.09789063 -36.0625 17.75 C-35.32201416 18.04656494 -34.58152832 18.34312988 -33.81860352 18.64868164 C-30.41455708 20.02183395 -27.01992279 21.41695141 -23.625 22.8125 C-22.46033203 23.27849609 -21.29566406 23.74449219 -20.09570312 24.22460938 C-10.10391001 28.3620561 -2.04565418 32.71296037 3.0625 42.5390625 C5.77334392 49.3887842 5.67713655 56.46415378 3.16796875 63.34375 C-0.58886364 70.69044445 -6.32354788 76.19910566 -14.01953125 79.12890625 C-14.69371094 79.33386719 -15.36789063 79.53882813 -16.0625 79.75 C-16.96548828 80.03230469 -16.96548828 80.03230469 -17.88671875 80.3203125 C-29.91427114 82.69559215 -41.68255503 80.3340265 -52 73.875 C-56.90903988 70.32017802 -60.37203896 67.20976747 -62.0625 61.1875 C-62.0625 56.40913351 -60.54515898 54.34248557 -57.375 50.9375 C-53.86878862 49.13701308 -50.8314175 48.7928146 -47.0625 49.75 C-44.58782734 51.35790914 -42.40189099 53.15507928 -40.1484375 55.05859375 C-35.61293022 58.73626164 -30.82956407 59.14672169 -25.18359375 59.00390625 C-22.17032716 58.64320215 -20.33786797 57.74094697 -18.0625 55.75 C-17.18427688 53.66466367 -17.18427688 53.66466367 -17.0625 51.75 C-20.54409597 48.73703435 -23.69882199 46.87401815 -27.9921875 45.234375 C-29.68021484 44.56341797 -29.68021484 44.56341797 -31.40234375 43.87890625 C-33.74706935 42.96433372 -36.09603577 42.0605554 -38.44921875 41.16796875 C-47.24385137 37.64006469 -53.1000363 33.56636472 -57 24.75 C-59.25299368 17.4981766 -58.25364576 11.39355105 -55.51953125 4.4375 C-52.29041713 -1.51861399 -47.08024516 -5.70651754 -40.8125 -8.1875 C-25.73398911 -12.45974475 -12.54021564 -9.21321965 0 0 Z " fill="#000000" transform="translate(104.0625,95.25)"/>
<path d="M0 0 C1.02609375 -0.00257812 2.0521875 -0.00515625 3.109375 -0.0078125 C4.1715625 -0.00007813 5.23375 0.00765625 6.328125 0.015625 C7.37484375 0.00789063 8.4215625 0.00015625 9.5 -0.0078125 C20.53882057 0.01978455 29.1201034 1.46658519 37.4921875 8.984375 C43.32199219 15.03744881 46.66174668 22.44178003 47.015625 30.890625 C46.5392858 40.07247378 42.579347 47.56801932 36.015625 53.890625 C27.12184262 61.27754185 17.78094963 61.85438659 6.578125 61.265625 C6.59907227 61.96647217 6.62001953 62.66731934 6.64160156 63.3894043 C6.72495548 66.57716419 6.77684639 69.76469452 6.828125 72.953125 C6.86164063 74.05591797 6.89515625 75.15871094 6.9296875 76.29492188 C7.02885533 84.50105971 7.02885533 84.50105971 4.6875 88.47265625 C1.10944626 91.51400193 -1.5810894 91.65796224 -6.16015625 91.62109375 C-9.77888699 91.05234678 -11.30217723 89.11396888 -13.421875 86.265625 C-14.60287516 82.72262451 -14.57071562 79.8761735 -14.59887695 76.13549805 C-14.60544815 75.41317993 -14.61201935 74.69086182 -14.61878967 73.94665527 C-14.63849573 71.55688367 -14.65017904 69.16717483 -14.66015625 66.77734375 C-14.66423178 65.9601417 -14.6683073 65.14293964 -14.67250633 64.30097389 C-14.69335531 59.97579833 -14.70766224 55.65065438 -14.71704102 51.32543945 C-14.72810481 46.86317927 -14.76250737 42.40141783 -14.80221272 37.93933392 C-14.8283834 34.50345445 -14.83673322 31.06769378 -14.84032249 27.6317234 C-14.84518708 25.98711592 -14.8567975 24.34251369 -14.87536049 22.69800377 C-14.89976331 20.3929144 -14.89878556 18.0891151 -14.8918457 15.78393555 C-14.89771194 14.47394089 -14.90357819 13.16394623 -14.90962219 11.81425476 C-14.33787075 7.65444778 -13.04828309 5.5032615 -10.421875 2.265625 C-6.94121216 0.30466833 -3.95440087 0.00967522 0 0 Z M6.578125 21.265625 C6.578125 27.535625 6.578125 33.805625 6.578125 40.265625 C15.2115496 40.98063944 15.2115496 40.98063944 22.578125 37.265625 C24.91303498 34.38590269 25.578125 32.92794706 25.578125 29.203125 C24.32684481 25.52748944 22.80839482 24.34222703 19.578125 22.265625 C16.56321943 21.26065648 14.53630808 21.16227197 11.390625 21.203125 C9.0084375 21.2340625 9.0084375 21.2340625 6.578125 21.265625 Z " fill="#000000" transform="translate(419.421875,85.734375)"/>
<path d="M0 0 C3.25806212 1.43774332 5.24531983 3.93122043 7.0625 6.91015625 C7.54423705 9.6742263 7.7402603 11.81501803 7.69360352 14.56445312 C7.70075882 15.30671646 7.70791412 16.0489798 7.71528625 16.81373596 C7.73211289 19.25276364 7.71280843 21.68993734 7.69140625 24.12890625 C7.69223552 25.83231762 7.69469707 27.53572891 7.69871521 29.23913574 C7.70156906 32.80338727 7.686913 36.36700896 7.65942383 39.93115234 C7.62534131 44.49098585 7.63136294 49.04969359 7.6500864 53.60958099 C7.66067458 57.12531859 7.65170217 60.64079598 7.63670158 64.1565094 C7.63153262 65.83735887 7.63198592 67.51823566 7.63824654 69.19908142 C7.64372099 71.55193134 7.62325507 73.9031909 7.59594727 76.25585938 C7.60247314 76.94486832 7.60899902 77.63387726 7.61572266 78.34376526 C7.51882237 83.274406 6.1411962 86.10663157 3.0625 89.91015625 C-0.13128082 91.50704666 -3.46271315 91.28364582 -6.9375 90.91015625 C-9.73803423 89.69253267 -11.34297338 88.78939538 -13.05314636 86.26023865 C-14.26675456 83.03519481 -14.22438687 79.95691628 -14.2121582 76.55883789 C-14.21726913 75.82501389 -14.22238007 75.09118988 -14.22764587 74.33512878 C-14.24152674 71.91344 -14.24058629 69.4920363 -14.23828125 67.0703125 C-14.24216898 65.38406773 -14.24650381 63.69782394 -14.25126648 62.01158142 C-14.25872542 58.47847315 -14.25843976 54.94546481 -14.25317383 51.41235352 C-14.24737928 46.88843432 -14.26431126 42.36492455 -14.2875185 37.84107304 C-14.30226199 34.35889806 -14.30312672 30.87682155 -14.30000877 27.3946209 C-14.30052167 25.72688422 -14.30575342 24.05914199 -14.31582069 22.39143562 C-14.3281801 20.05764407 -14.321397 17.72464829 -14.30981445 15.39086914 C-14.31745819 14.70447357 -14.32510193 14.018078 -14.33297729 13.31088257 C-14.28582394 9.00469439 -13.52426284 6.35657206 -10.9375 2.91015625 C-7.30856987 -0.20035529 -4.54567292 -0.35742186 0 0 Z " fill="#000000" transform="translate(128.9375,85.08984375)"/>
<path d="M0 0 C5.57894737 3.15789474 5.57894737 3.15789474 7 6 C7.55512815 10.63213493 7.6364242 13.98172127 5.125 18 C1.85159987 21.08084718 -0.46126475 21.33387487 -4.9609375 21.29296875 C-8.13134567 20.83745033 -9.8192402 19.24684343 -12 17 C-13.73631636 13.52736727 -13.60190402 9.78806987 -13 6 C-9.08606917 1.05608737 -6.27104539 -0.60298513 0 0 Z " fill="#000000" transform="translate(259,29)"/>
</svg>
